<?xml version="1.0" encoding="UTF-8"?>
<!DOCTYPE svg PUBLIC "-//W3C//DTD SVG 1.1//EN" "http://www.w3.org/Graphics/SVG/1.1/DTD/svg11.dtd">
<!-- Creator: CorelDRAW X8 -->
<svg xmlns="http://www.w3.org/2000/svg" xml:space="preserve" width="2480px" height="3508px" version="1.1" style="shape-rendering:geometricPrecision; text-rendering:geometricPrecision; image-rendering:optimizeQuality; fill-rule:evenodd; clip-rule:evenodd"
viewBox="0 0 2480 3507"
 xmlns:xlink="http://www.w3.org/1999/xlink">
 <defs>
  <style type="text/css">
   <![CDATA[
    .str0 {stroke:#0D0F3A;stroke-width:11.8095}
    .str1 {stroke:#FCEE5E;stroke-width:2.95238}
    .fil5 {fill:none;fill-rule:nonzero}
    .fil3 {fill:#FEFEFE}
    .fil8 {fill:#2B2A29}
    .fil1 {fill:#FCEE5E}
    .fil0 {fill:#0D0F3A}
    .fil6 {fill:#191516}
    .fil15 {fill:#272324}
    .fil12 {fill:#282425}
    .fil13 {fill:#282627}
    .fil14 {fill:#292526}
    .fil16 {fill:#292728}
    .fil17 {fill:#2A2627}
    .fil10 {fill:#E6E6E6}
    .fil18 {fill:#E8E7E8}
    .fil11 {fill:#E9E9E9}
    .fil9 {fill:#ECEAEB}
    .fil2 {fill:#FCEE5E;fill-rule:nonzero}
    .fil4 {fill:#0D0F3A;fill-rule:nonzero}
    .fil7 {fill:#0F0B46;fill-rule:nonzero}
   ]]>
  </style>
 </defs>
 <g id="Layer_x0020_1">
  <metadata id="CorelCorpID_0Corel-Layer"/>
  <polygon class="fil0" points="580,839 1795,839 1793,2343 1454,2583 580,2583 "/>
  <polygon class="fil1" points="1743,1731 1208,1730 664,2141 664,2502 1466,2502 1741,2305 "/>
  <path class="fil1 str0" d="M1548 938c0,-8 -6,-15 -15,-15l-266 0c-8,0 -15,5 -15,15 0,8 5,16 15,16l266 0c9,-2 15,-8 15,-16z"/>
  <path class="fil1 str0" d="M1606 938c0,8 6,16 16,16l85 0c8,0 15,-6 15,-16 0,-8 -5,-15 -15,-15l-85 0c-10,0 -16,7 -16,15z"/>
  <path class="fil1 str0" d="M1707 1014l-184 0c-8,0 -16,5 -16,15 0,8 6,16 16,16l184 0c8,0 15,-6 15,-16 -1,-8 -7,-15 -15,-15z"/>
  <path class="fil1 str0" d="M1442 1014l-61 0c-7,0 -15,5 -15,15 0,8 6,16 15,16l61 0c7,0 15,-6 15,-16 0,-8 -8,-15 -15,-15z"/>
  <path class="fil2" d="M699 1346l28 -25c3,-2 5,-5 7,-7 2,-2 4,-4 5,-6 2,-2 2,-3 3,-5 1,-2 1,-4 1,-6 0,-2 0,-4 -1,-6 -1,-2 -2,-3 -4,-4 -1,-2 -3,-3 -5,-3 -2,-1 -3,-1 -6,-1 -4,0 -8,1 -11,3 -3,2 -6,5 -9,10l-7 -5c2,-2 4,-5 6,-7 2,-2 4,-4 6,-5 2,-1 4,-2 7,-3 3,-1 6,-1 9,-1 4,0 7,0 10,1 3,2 5,3 7,5 2,2 4,4 5,7 1,3 2,5 2,9l0 0c0,3 0,5 -1,8 -1,2 -2,4 -4,7 -1,2 -3,4 -6,7 -2,2 -5,5 -8,8l-21 18 41 0 0 8 -54 0 0 -7z"/>
  <path id="1" class="fil2" d="M794 1346c3,0 6,0 8,-1 3,-1 5,-2 7,-3 2,-1 3,-3 4,-5 1,-1 1,-3 1,-5l0 0c0,-2 0,-4 -1,-6 -2,-2 -3,-4 -5,-5 -2,-1 -4,-2 -6,-3 -3,-1 -5,-1 -8,-1 -3,0 -5,0 -8,1 -2,1 -4,2 -6,3 -2,1 -4,3 -5,5 -1,2 -1,4 -1,6l0 0c0,2 0,4 1,5 1,2 2,4 4,5 2,1 4,2 7,3 2,1 5,1 8,1zm0 -36c2,0 5,0 7,-1 2,-1 4,-2 6,-3 1,-1 2,-3 3,-4 1,-2 2,-4 2,-6l0 0c0,-2 -1,-4 -2,-6 -1,-1 -2,-3 -3,-4 -2,-1 -4,-2 -6,-3 -2,0 -4,-1 -7,-1 -2,0 -5,1 -7,1 -2,1 -4,2 -6,3 -1,1 -2,3 -3,4 -1,2 -1,4 -1,6l0 0c0,2 0,4 1,6 1,1 2,3 4,4 1,1 3,2 5,3 2,1 5,1 7,1zm0 44c-4,0 -8,-1 -11,-2 -4,-1 -7,-2 -10,-4 -2,-2 -4,-4 -6,-7 -1,-3 -2,-6 -2,-9l0 0c0,-5 2,-9 5,-12 3,-3 6,-5 11,-7 -2,-1 -3,-2 -5,-3 -2,-1 -3,-2 -4,-4 -1,-1 -2,-3 -3,-5 -1,-1 -1,-3 -1,-6l0 0c0,-3 1,-6 2,-8 1,-2 3,-5 6,-6 2,-2 5,-4 8,-5 3,-1 7,-1 10,-1 4,0 7,0 10,1 3,1 6,3 8,5 3,1 5,4 6,6 2,2 2,5 2,8l0 0c0,3 0,5 -1,6 0,2 -1,4 -3,5 -1,2 -2,3 -4,4 -2,1 -3,2 -5,3 5,2 8,4 11,7 3,3 5,7 5,12l0 0c0,3 -1,6 -2,9 -2,3 -4,5 -6,7 -3,2 -6,3 -10,4 -3,1 -7,2 -11,2z"/>
  <polygon id="2" class="fil2" points="836,1315 866,1315 866,1324 836,1324 "/>
  <path id="3" class="fil2" d="M879 1346l28 -25c2,-2 5,-5 7,-7 2,-2 4,-4 5,-6 1,-2 2,-3 3,-5 0,-2 1,-4 1,-6 0,-2 -1,-4 -2,-6 -1,-2 -2,-3 -3,-4 -1,-2 -3,-3 -5,-3 -2,-1 -4,-1 -6,-1 -4,0 -8,1 -11,3 -3,2 -6,5 -10,10l-6 -5c2,-2 4,-5 5,-7 2,-2 4,-4 6,-5 3,-1 5,-2 8,-3 2,-1 5,-1 9,-1 3,0 6,0 9,1 3,2 6,3 8,5 2,2 4,4 5,7 1,3 2,5 2,9l0 0c0,3 -1,5 -2,8 0,2 -2,4 -3,7 -2,2 -4,4 -6,7 -3,2 -6,5 -9,8l-20 18 40 0 0 8 -53 0 0 -7z"/>
  <path id="4" class="fil2" d="M974 1317c3,0 5,0 8,-1 2,-1 4,-2 6,-4 1,-2 3,-4 4,-6 0,-2 1,-4 1,-6l0 0c0,-3 -1,-5 -2,-7 -1,-2 -2,-4 -4,-6 -1,-1 -3,-2 -6,-3 -2,-1 -5,-2 -8,-2 -3,0 -5,1 -7,2 -3,1 -5,2 -6,4 -2,1 -3,3 -4,5 -1,3 -1,5 -1,7l0 1c0,2 0,4 1,6 1,2 2,4 4,6 2,1 4,2 6,3 2,1 5,1 8,1zm-3 37c-5,0 -9,-1 -13,-3 -3,-1 -7,-4 -10,-6l5 -7c3,3 6,5 9,6 3,2 6,2 10,2 3,0 6,-1 9,-2 3,-2 5,-4 7,-7 2,-3 4,-7 5,-11 1,-4 2,-9 1,-14 -2,4 -4,7 -8,9 -3,3 -8,4 -13,4 -4,0 -8,-1 -11,-2 -3,-1 -6,-3 -9,-5 -2,-2 -4,-5 -5,-8 -1,-2 -2,-6 -2,-9l0 0c0,-4 1,-7 2,-11 1,-3 3,-5 6,-8 2,-2 5,-4 8,-5 4,-2 8,-2 12,-2 4,0 8,0 11,2 3,1 6,3 9,5 3,3 5,7 7,12 2,4 2,11 2,18l0 0c0,7 0,12 -2,17 -1,5 -4,10 -6,13 -3,4 -7,7 -11,9 -3,2 -8,3 -13,3z"/>
  <path id="5" class="fil2" d="M1080 1354c-6,0 -11,-1 -17,-3 -5,-2 -9,-5 -14,-9l5 -7c4,4 8,7 12,8 5,2 9,3 15,3 5,0 9,-1 12,-4 3,-2 5,-5 5,-9l0 0c0,-2 -1,-4 -1,-5 -1,-1 -2,-3 -3,-4 -2,-1 -4,-2 -6,-3 -3,-1 -6,-2 -10,-3 -5,-1 -9,-2 -12,-3 -3,-1 -6,-3 -8,-5 -2,-1 -4,-3 -5,-6 -1,-2 -1,-5 -1,-8l0 0c0,-3 0,-6 2,-9 1,-2 3,-4 5,-6 2,-2 5,-4 8,-5 3,-1 6,-1 10,-1 6,0 11,1 15,2 4,2 8,4 12,7l-5 7c-4,-3 -7,-5 -11,-6 -3,-2 -7,-2 -11,-2 -5,0 -9,1 -12,3 -3,3 -4,5 -4,9l0 0c0,2 0,4 0,5 1,2 2,3 4,4 1,1 3,2 6,3 3,1 6,2 10,3 9,2 15,5 19,8 4,3 6,8 6,14l0 0c0,3 0,6 -2,9 -1,3 -3,5 -5,7 -2,2 -5,3 -8,4 -3,1 -7,2 -11,2z"/>
  <polygon id="6" class="fil2" points="1124,1276 1180,1276 1180,1284 1133,1284 1133,1310 1175,1310 1175,1318 1133,1318 1133,1345 1180,1345 1180,1353 1124,1353 "/>
  <path id="7" class="fil2" d="M1225 1318c3,0 6,-1 9,-1 3,-1 5,-2 7,-4 1,-1 3,-3 4,-5 1,-2 1,-5 1,-7l0 0c0,-6 -2,-10 -5,-13 -4,-3 -9,-4 -15,-4l-20 0 0 34 19 0zm-27 -42l28 0c5,0 9,0 12,2 4,1 7,2 9,4 3,3 5,5 6,8 1,3 2,6 2,10l0 0c0,5 -1,8 -2,11 -2,4 -4,6 -7,8 -3,2 -6,4 -9,5 -4,1 -8,2 -12,2l-19 0 0 27 -8 0 0 -77z"/>
  <polygon id="8" class="fil2" points="1291,1284 1265,1284 1265,1276 1326,1276 1326,1284 1300,1284 1300,1353 1291,1353 "/>
  <polygon id="9" class="fil2" points="1342,1276 1397,1276 1397,1284 1351,1284 1351,1310 1393,1310 1393,1318 1351,1318 1351,1345 1398,1345 1398,1353 1342,1353 "/>
  <polygon id="10" class="fil2" points="1415,1276 1424,1276 1452,1318 1480,1276 1489,1276 1489,1353 1480,1353 1480,1291 1452,1332 1452,1332 1424,1291 1424,1353 1415,1353 "/>
  <path id="11" class="fil2" d="M1545 1345c6,0 10,-1 14,-4 3,-2 5,-5 5,-10l0 0c0,-4 -2,-7 -5,-10 -4,-2 -9,-3 -15,-3l-25 0 0 27 26 0zm-3 -35c5,0 9,-1 13,-3 3,-3 5,-6 5,-11l0 0c0,-4 -2,-7 -5,-9 -3,-2 -7,-3 -12,-3l-24 0 0 26 23 0zm-31 -34l32 0c5,0 9,1 12,2 3,1 6,3 8,5 4,3 5,7 5,12l0 0c0,3 0,5 -1,7 0,2 -1,3 -3,5 -1,1 -2,2 -3,3 -2,1 -3,2 -5,3 2,1 5,1 7,2 2,2 3,3 5,4 1,2 2,4 3,6 1,2 2,4 2,6l0 1c0,3 -1,6 -2,9 -2,2 -4,4 -6,6 -3,2 -5,3 -9,4 -3,1 -7,2 -11,2l-34 0 0 -77z"/>
  <polygon id="12" class="fil2" points="1590,1276 1645,1276 1645,1284 1599,1284 1599,1310 1640,1310 1640,1318 1599,1318 1599,1345 1646,1345 1646,1353 1590,1353 "/>
  <path id="13" class="fil2" d="M1696 1315c3,0 5,0 8,-1 2,-1 4,-2 6,-3 2,-1 3,-3 4,-5 1,-2 1,-4 1,-7l0 0c0,-5 -1,-8 -5,-11 -3,-3 -8,-4 -14,-4l-24 0 0 31 24 0zm-33 -39l33 0c5,0 9,1 13,2 4,1 7,3 9,6 2,1 4,4 5,6 1,3 1,6 1,9l0 0c0,3 0,6 -1,9 -1,2 -3,4 -5,6 -2,2 -4,4 -6,5 -3,1 -6,2 -9,2l24 32 -11 0 -22 -30 0 0 -22 0 0 30 -9 0 0 -77z"/>
  <path id="14" class="fil2" d="M1022 1477c-4,0 -9,-1 -13,-2 -3,-1 -7,-4 -10,-6 -2,-3 -5,-7 -6,-11 -2,-4 -2,-9 -2,-14l0 -45 8 0 0 44c0,9 2,15 6,19 5,5 10,7 18,7 7,0 12,-2 17,-6 4,-4 6,-11 6,-19l0 -45 8 0 0 44c0,6 0,11 -2,15 -1,4 -4,8 -6,11 -3,2 -7,5 -10,6 -4,1 -9,2 -14,2z"/>
  <path id="15" class="fil2" d="M1101 1477c-6,0 -11,-1 -16,-3 -5,-2 -10,-5 -15,-9l5 -7c4,4 9,7 13,9 4,1 8,2 14,2 5,0 9,-1 12,-3 3,-3 5,-6 5,-10l0 0c0,-2 0,-3 -1,-5 -1,-1 -2,-2 -3,-4 -2,-1 -4,-2 -6,-3 -3,-1 -6,-2 -10,-3 -5,-1 -8,-2 -12,-3 -3,-1 -6,-3 -8,-4 -2,-2 -3,-4 -4,-7 -1,-2 -2,-5 -2,-8l0 0c0,-3 1,-6 2,-8 1,-3 3,-5 5,-7 2,-2 5,-3 8,-4 3,-1 7,-2 10,-2 6,0 11,1 15,2 4,2 8,4 12,8l-5 6c-3,-3 -7,-5 -11,-6 -3,-1 -7,-2 -11,-2 -5,0 -9,1 -12,3 -3,3 -4,6 -4,9l0 0c0,2 0,4 1,5 0,2 1,3 3,4 1,2 3,3 6,4 3,1 6,2 11,2 8,2 14,5 18,8 5,4 7,8 7,14l0 0c0,4 -1,7 -2,9 -2,3 -3,5 -6,7 -2,2 -5,4 -8,5 -3,1 -7,1 -11,1z"/>
  <polygon id="16" class="fil2" points="1146,1399 1155,1399 1155,1476 1146,1476 "/>
  <path id="17" class="fil2" d="M1208 1477c-5,0 -9,-1 -13,-2 -4,-1 -7,-4 -10,-6 -3,-3 -5,-7 -7,-11 -1,-4 -2,-9 -2,-14l0 -45 9 0 0 44c0,9 2,15 6,19 4,5 10,7 17,7 7,0 13,-2 17,-6 4,-4 6,-11 6,-19l0 -45 9 0 0 44c0,6 -1,11 -2,15 -2,4 -4,8 -7,11 -3,2 -6,5 -10,6 -4,1 -8,2 -13,2z"/>
  <polygon id="18" class="fil2" points="1257,1439 1287,1439 1287,1447 1257,1447 "/>
  <path id="19" class="fil2" d="M1355 1448l-17 -39 -18 39 35 0zm-21 -49l8 0 35 77 -10 0 -9 -20 -41 0 -10 20 -8 0 35 -77z"/>
  <polygon id="20" class="fil2" points="1392,1399 1447,1399 1447,1407 1401,1407 1401,1435 1442,1435 1442,1443 1401,1443 1401,1476 1392,1476 "/>
  <path id="21" class="fil2" d="M1496 1438c3,0 6,0 8,-1 2,0 5,-2 6,-3 2,-1 3,-3 4,-5 1,-2 2,-4 2,-6l0 -1c0,-4 -2,-8 -5,-11 -4,-2 -9,-4 -15,-4l-24 0 0 31 24 0zm-32 -39l33 0c5,0 9,1 13,2 3,2 6,3 9,6 2,2 3,4 4,7 1,2 2,5 2,8l0 0c0,3 -1,6 -2,9 -1,2 -2,5 -4,6 -2,2 -4,4 -7,5 -2,1 -5,2 -8,3l23 31 -10 0 -23 -30 0 0 -22 0 0 30 -8 0 0 -77z"/>
  <polygon id="22" class="fil2" points="1544,1399 1553,1399 1553,1476 1544,1476 "/>
  <path id="23" class="fil2" d="M1610 1477c-5,0 -11,-1 -15,-3 -5,-2 -9,-5 -12,-8 -4,-4 -6,-8 -8,-13 -2,-5 -3,-10 -3,-15l0 0c0,-6 1,-11 3,-16 2,-5 4,-9 8,-12 3,-4 7,-7 12,-9 5,-2 10,-3 15,-3 4,0 7,0 10,1 3,0 5,1 8,2 2,1 4,3 7,4 2,2 4,3 5,5l-5 6c-4,-3 -7,-5 -11,-7 -4,-2 -8,-3 -14,-3 -4,0 -8,1 -11,2 -4,2 -7,4 -10,7 -3,3 -5,6 -6,10 -2,4 -2,8 -2,12l0 1c0,4 0,8 2,12 1,4 3,7 6,10 3,3 6,5 10,7 3,1 7,2 11,2 6,0 10,-1 14,-3 4,-2 8,-4 11,-8l6 6c-2,2 -4,4 -6,5 -2,2 -5,3 -7,5 -3,1 -5,2 -8,2 -3,1 -6,1 -10,1z"/>
  <path id="24" class="fil2" d="M1706 1448l-18 -39 -17 39 35 0zm-22 -49l9 0 35 77 -10 0 -9 -20 -42 0 -9 20 -9 0 35 -77z"/>
  <path class="fil3" d="M680 1754c-36,1 -31,2 -62,17 -23,44 65,38 86,42 23,29 2,51 52,56 22,2 55,-6 70,14 5,8 7,38 -4,47 -31,28 -90,-21 -109,45 22,52 63,20 101,37l17 14 4 49c-51,42 -147,-11 -120,87 45,31 52,5 88,12 42,8 31,29 36,54 10,52 95,56 134,64l22 42 -7 -43 38 17c-43,-43 -22,-1 -34,-55 -3,-13 -13,-52 -33,-61 -84,-39 -129,1 -131,-54 -2,-86 82,-23 119,-76 4,-55 -43,-50 -82,-50 -47,-1 -59,-52 -14,-71 31,-19 73,15 84,-36 6,-25 -27,-34 -27,-34l-69 -4 -16 -9 2 -11c0,-24 -16,-37 -41,-36l-42 2c-34,-28 -8,-41 -27,-48l-35 -11z"/>
  <path class="fil4" d="M1134 2333c12,-13 24,-24 33,-34 10,-10 18,-19 26,-27 7,-7 13,-14 19,-20 5,-6 9,-12 13,-18 3,-5 6,-10 8,-15 2,-5 3,-10 4,-16 3,-16 2,-28 -3,-35 -4,-7 -12,-10 -23,-10l-43 0 2 -14c5,-2 12,-3 21,-4 8,-2 17,-2 27,-2 20,0 34,5 42,15 7,10 9,27 5,50 -2,10 -5,19 -10,28 -4,9 -11,18 -19,28 -8,10 -18,21 -31,33 -12,13 -26,27 -42,44l79 0 -4 22 -109 0 5 -25z"/>
  <path id="1" class="fil4" d="M1505 2141l-38 217 -28 0 35 -195 -34 0 2 -16c5,-2 12,-3 21,-4 8,-1 17,-2 27,-2l15 0z"/>
  <path id="2" class="fil4" d="M1640 2166c-20,34 -37,67 -52,99 -15,32 -27,63 -37,93l-28 0c19,-59 49,-124 90,-195l-84 0 4 -22 112 0 -5 25z"/>
  <path id="3" class="fil5" d="M1365 2138c10,0 18,2 25,5 8,4 13,10 17,18 4,9 6,20 7,34 0,15 -1,33 -5,54 -4,22 -9,40 -14,54 -6,15 -12,26 -19,35 -7,8 -15,14 -23,18 -9,3 -18,5 -27,5 -10,0 -19,-2 -26,-5 -7,-4 -13,-10 -17,-18 -4,-9 -6,-20 -6,-35 -1,-14 1,-32 5,-54 3,-21 8,-39 14,-54 5,-14 11,-25 18,-34 7,-8 15,-14 24,-18 8,-3 17,-5 27,-5zm-36 204c4,0 8,-1 13,-4 5,-2 9,-7 14,-14 5,-7 9,-17 13,-29 5,-12 8,-27 12,-46 3,-18 5,-34 5,-45 0,-12 -1,-22 -4,-29 -2,-7 -5,-12 -8,-15 -4,-2 -8,-4 -12,-4 -5,0 -9,2 -14,4 -5,3 -9,8 -14,15 -5,7 -9,17 -13,29 -4,11 -8,27 -12,45 -3,19 -5,34 -5,46 0,12 2,22 4,29 2,7 5,12 9,14 3,3 7,4 12,4z"/>
  <path id="path1948" class="fil0 str1" d="M1356 2136c-8,1 -16,1 -23,2 -21,4 -25,12 -25,26l0 19 49 0 0 6 -49 0 -18 0c-14,0 -27,8 -31,25 -4,18 -4,30 0,49 4,15 12,25 26,25l17 0 0 -22c0,-16 14,-31 31,-31l49 0c13,0 24,-11 24,-25l0 -46c0,-13 -11,-23 -24,-26 -9,-1 -18,-2 -26,-2zm-26 15c5,0 9,5 9,10 0,5 -4,9 -9,9 -5,0 -10,-4 -10,-9 0,-5 5,-10 10,-10z"/>
  <path id="path1950" class="fil6 str1" d="M1412 2189l0 21c0,17 -14,31 -30,31l-49 0c-14,0 -25,12 -25,25l0 47c0,13 12,21 25,25 15,4 30,5 49,0 12,-4 24,-11 24,-25l0 -19 -49 0 0 -6 49 0 24 0c15,0 20,-10 25,-25 5,-15 5,-30 0,-49 -4,-15 -10,-25 -25,-25l-18 0zm-27 118c5,0 9,4 9,9 0,5 -4,9 -9,9 -5,0 -10,-4 -10,-9 0,-5 5,-9 10,-9z"/>
  <path class="fil7" d="M1002 2027c4,0 7,-1 11,-2 3,-1 6,-3 9,-6 3,-3 5,-7 7,-12 2,-6 4,-12 5,-20 1,-7 2,-14 2,-18 -1,-5 -2,-9 -3,-12 -2,-3 -4,-5 -7,-7 -3,-1 -7,-1 -11,-1l-12 0 -14 78 13 0zm-23 62l-27 0 27 -153c6,-1 12,-2 18,-3 6,-1 13,-1 21,-1 9,0 17,1 23,3 7,2 11,5 15,10 3,4 5,10 6,17 1,7 0,15 -1,25 -2,11 -5,20 -8,27 -3,7 -7,13 -12,18 -4,4 -10,8 -16,10 -6,2 -12,3 -20,3 -1,0 -2,0 -3,0 -2,-1 -4,-1 -5,-1 -2,0 -4,0 -6,-1 -1,0 -3,0 -4,0l-8 46z"/>
  <path id="1" class="fil7" d="M1122 2085c-3,2 -7,3 -11,4 -4,2 -8,2 -12,2 -5,0 -9,0 -13,-1 -4,-1 -8,-3 -10,-6 -3,-2 -5,-6 -6,-11 -1,-4 -1,-10 1,-17l13 -78 27 0 -14 78c-1,4 -1,7 0,9 0,3 1,5 3,7 1,1 3,2 5,3 2,0 4,1 6,1 3,0 6,-1 8,-2 2,-1 4,-2 5,-3l17 -93 26 0 -18 102c-3,20 -10,34 -19,43 -9,8 -22,12 -38,12 -6,0 -11,0 -16,-1 -5,-1 -9,-2 -12,-3l2 -11 24 0c8,0 15,-3 20,-8 6,-5 9,-14 12,-27z"/>
  <path id="2" class="fil7" d="M1223 2091c-8,0 -15,-1 -21,-4 -6,-2 -11,-6 -14,-12 -4,-6 -6,-15 -6,-25 0,-10 1,-23 3,-38 3,-16 7,-29 11,-39 4,-10 8,-18 14,-24 5,-6 11,-11 17,-13 7,-3 14,-4 22,-4 8,0 15,0 21,1 6,1 11,2 14,3l-2 13 -27 0c-5,0 -9,1 -13,2 -5,2 -9,6 -12,10 -4,5 -7,12 -10,20 -3,8 -6,18 -8,31 -2,12 -3,22 -3,30 0,9 1,15 4,20 2,4 5,8 9,10 3,2 8,3 13,3l27 0 -2 12c-4,1 -9,2 -15,3 -7,1 -14,1 -22,1z"/>
  <path id="3" class="fil7" d="M1331 1991c-3,0 -5,0 -8,1 -2,2 -4,4 -6,7 -2,3 -4,8 -6,13 -2,6 -4,13 -5,22 -2,8 -3,15 -3,21 0,5 0,10 1,13 1,3 3,6 5,7 2,1 4,2 6,2 3,0 5,-1 8,-2 2,-1 4,-4 7,-7 2,-3 4,-8 6,-13 2,-6 3,-13 5,-21 1,-9 2,-16 2,-22 0,-5 0,-10 -1,-13 -1,-3 -3,-5 -5,-7 -2,-1 -4,-1 -6,-1zm2 -15c7,0 14,1 19,3 5,2 9,6 12,10 3,5 5,11 5,18 1,7 0,16 -2,27 -1,10 -4,19 -7,26 -3,8 -7,14 -12,18 -4,5 -10,8 -15,10 -6,2 -13,3 -20,3 -7,0 -13,-1 -19,-3 -5,-2 -9,-5 -12,-10 -2,-4 -4,-10 -5,-18 -1,-7 0,-16 2,-26 2,-11 4,-20 7,-27 4,-7 7,-13 12,-18 5,-4 10,-8 16,-10 5,-2 12,-3 19,-3z"/>
  <path id="4" class="fil7" d="M1449 1976c5,0 9,1 13,2 4,1 8,2 10,5 3,3 5,6 6,11 1,4 1,10 -1,18l-13 77 -27 0 14 -77c1,-4 1,-7 0,-10 -1,-3 -2,-5 -3,-6 -1,-2 -3,-3 -5,-3 -2,-1 -4,-1 -6,-1 -3,0 -6,0 -8,1 -2,1 -4,2 -5,3l-17 93 -26 0 19 -111 19 0 2 7 1 0c3,-2 7,-4 11,-6 4,-2 10,-3 16,-3z"/>
  <polygon id="5" class="fil7" points="1591,2089 1561,2089 1533,2016 1520,2089 1494,2089 1521,1934 1547,1934 1535,2005 1584,1934 1614,1934 1559,2010 "/>
  <polygon id="6" class="fil7" points="1638,2071 1692,2071 1689,2089 1609,2089 1636,1934 1717,1934 1713,1952 1659,1952 1651,1999 1698,1999 1695,2017 1648,2017 "/>
  <g id="_2218800923536">
   <g>
    <polygon class="fil8" points="1655,1835 1654,1835 1655,1836 "/>
    <path class="fil8" d="M1351 1811l0 0c0,0 0,0 0,0z"/>
   </g>
   <g>
    <polygon class="fil8" points="1670,1834 1670,1833 1669,1834 "/>
    <polygon class="fil8" points="1262,1835 1262,1835 1261,1835 "/>
    <path class="fil8" d="M1458 1822l0 0c0,0 -1,0 0,0z"/>
    <path class="fil8" d="M1607 1850l1 0c0,0 -1,0 -1,0z"/>
   </g>
   <g>
    <polygon class="fil8" points="1213,1813 1213,1814 1214,1813 "/>
    <polygon class="fil8" points="1297,1820 1296,1820 1297,1821 "/>
    <polygon class="fil8" points="1339,1829 1339,1829 1339,1828 "/>
    <polygon class="fil8" points="1586,1825 1586,1826 1587,1826 "/>
    <path class="fil8" d="M1662 1826l1 0c0,0 -1,0 -1,0z"/>
    <path class="fil8" d="M1586 1805l0 -1c0,0 0,1 0,1z"/>
   </g>
   <g>
    <path class="fil8" d="M1223 1801c1,6 11,20 16,23 6,-2 15,-17 15,-20 0,-6 -19,-4 -27,-4 -1,0 -3,1 -4,1z"/>
    <path class="fil8" d="M1544 1801c1,5 4,9 7,13 2,3 5,9 10,10 5,-3 14,-15 15,-22 -6,-3 -29,-2 -32,-1z"/>
    <path class="fil8" d="M1522 1851c0,6 28,3 32,3 0,-4 -5,-10 -7,-13 -4,-6 -7,-8 -8,-11 -7,4 -17,17 -17,21z"/>
    <path class="fil8" d="M1362 1853c7,3 23,1 31,1 0,-3 -1,-4 -2,-7 -4,-5 -8,-12 -13,-16 -5,2 -16,14 -16,22z"/>
    <path class="fil8" d="M1383 1801c1,4 11,21 17,23 5,-4 14,-14 15,-22 -6,-3 -24,-2 -32,-1z"/>
    <path class="fil8" d="M1208 1855l25 -1c-1,-5 -9,-15 -12,-19 -5,-6 -7,-5 -16,9 -3,4 -8,11 3,11z"/>
    <path class="fil8" d="M1297 1820c5,1 1,3 7,3 2,-4 10,-12 10,-19 -8,-6 -18,-4 -27,-2 0,7 7,13 10,18z"/>
    <path class="fil8" d="M1448 1802c0,6 9,19 15,21 4,-2 12,-14 12,-19 -6,-4 -12,-4 -20,-4 -4,0 -4,1 -7,2z"/>
    <path class="fil8" d="M1141 1851c6,4 13,4 20,4 4,0 5,-1 8,-2 0,-9 -10,-18 -17,-22 -1,4 -9,11 -11,20z"/>
    <path class="fil8" d="M1608 1803c0,5 10,18 16,20 3,-2 11,-14 12,-19 -8,-5 -28,-4 -28,-1z"/>
    <path class="fil8" d="M1623 1852c7,2 20,5 28,0 -2,-6 -9,-16 -14,-19 -2,-1 0,-1 -4,-1 -1,5 -10,11 -10,20z"/>
    <path class="fil8" d="M1463 1852c7,2 20,5 27,0 0,-5 -10,-20 -17,-20 -1,2 -2,3 -3,5 -3,4 -7,10 -7,15z"/>
    <path class="fil8" d="M1302 1851c7,5 19,4 27,2 0,-6 -9,-19 -15,-21 -4,2 -12,14 -12,19z"/>
   </g>
   <g>
    <path class="fil8" d="M1670 1834c-2,3 -2,3 -4,5l-20 -33c-1,-2 -1,-3 -5,-3 0,7 4,12 6,17 2,2 2,4 4,7 2,2 3,4 4,8l6 8c2,4 3,7 7,9 0,0 1,0 1,0l4 -4c6,-8 13,-20 18,-28 9,-17 5,-16 -15,-19 -6,-1 -21,-2 -25,0 0,3 -1,2 2,3 3,3 21,5 26,6 3,1 5,0 2,7 -1,3 -2,4 -3,6 -2,3 -6,9 -8,11z"/>
    <path class="fil8" d="M1582 1838c0,7 13,7 20,6 -1,-3 -2,-6 -3,-9 -1,-1 -5,-6 -6,-6 -4,0 -11,6 -11,9z"/>
    <path class="fil8" d="M1422 1839c0,5 12,6 19,5 0,-4 -6,-15 -8,-15 -4,0 -11,5 -11,10z"/>
    <path class="fil8" d="M1175 1811c1,5 6,15 10,15 3,1 23,-16 -5,-16 -2,0 -4,1 -5,1z"/>
    <path class="fil8" d="M1497 1811c0,6 6,15 8,15 5,0 24,-16 -4,-16 -1,0 -3,1 -4,1z"/>
   </g>
   <g>
    <path class="fil8" d="M1339 1829l-9 -14c-1,-3 -2,-4 -4,-7 -2,-3 -2,-5 -6,-5 0,8 8,20 12,27 2,4 11,21 16,22 3,-2 12,-16 15,-21l10 -18c2,-4 4,-6 -2,-9 -6,-3 -35,-6 -42,-3 1,3 0,2 2,3 4,3 28,5 30,8 1,2 -1,5 -2,7 -2,3 -3,5 -4,7 -2,2 -3,4 -5,6 -1,2 -3,4 -5,6 -3,-2 -5,-6 -6,-9z"/>
    <path class="fil8" d="M1586 1825c2,-3 3,-6 6,-8 4,2 15,24 21,32 1,3 1,3 4,3 0,-6 -2,-10 -4,-14l-7 -13c-3,-5 -11,-21 -16,-22 -5,3 -27,37 -28,46 11,5 23,5 35,6 6,0 10,1 11,-4 -6,-1 -6,-2 -16,-4 -5,-1 -11,-2 -16,-3 0,-5 7,-17 10,-19z"/>
    <path class="fil8" d="M1213 1813c1,-3 2,-5 1,-8 -11,-2 -3,-2 -21,-4 -7,-1 -18,-1 -24,0 1,5 7,5 14,7 7,1 12,2 18,3 0,7 -12,24 -16,27 -3,-2 -11,-14 -12,-18 -2,-4 -4,-6 -6,-10 -4,-5 -3,-7 -7,-7 0,7 20,47 27,49 4,-3 10,-14 14,-19l12 -20z"/>
    <path class="fil8" d="M1402 1849c11,6 26,6 41,6 3,0 4,-1 5,-4l-16 -4c-6,-1 -11,-2 -17,-3 2,-8 12,-24 17,-27 3,2 4,5 6,9l14 23c2,2 2,3 5,3 0,-10 -21,-45 -27,-49 -6,3 -12,15 -16,21 -3,4 -12,19 -12,25z"/>
    <path class="fil8" d="M1490 1801l0 3c5,1 6,2 16,4 3,0 6,1 8,1 6,1 9,2 7,6 0,1 -1,3 -2,4 -2,5 -10,17 -14,20 -1,-3 -1,-2 -3,-5l-17 -28c-1,-3 -1,-3 -4,-3 0,9 20,45 26,49 4,-2 3,-2 5,-4l11 -17c3,-5 12,-19 13,-25 -11,-5 -39,-7 -46,-5z"/>
    <path class="fil8" d="M1270 1855l17 -1 0 -3 -29 -6c-1,-1 -3,0 -3,-3 1,-5 13,-23 17,-26 1,3 1,3 3,5 6,9 15,30 21,31 0,-9 -20,-44 -27,-49 -1,1 -2,1 -3,3l-9 12c-2,3 -3,5 -5,8l-9 18c-3,4 -2,5 3,7 6,2 17,4 24,4z"/>
    <path class="fil8" d="M1344 1826c6,0 24,-16 -5,-16 -8,0 4,16 5,16z"/>
   </g>
   <path class="fil8" d="M1683 1851c0,6 27,3 32,3 -1,-5 -12,-20 -15,-22 -5,-3 -17,16 -17,19z"/>
   <path class="fil8" d="M1262 1835c-1,3 -1,3 -1,6 3,1 1,1 4,2 2,1 3,1 5,1 5,1 6,1 10,0 0,-6 -5,-13 -8,-15 -3,-1 -8,4 -10,6z"/>
   <path class="fil8" d="M1657 1811c0,6 6,15 9,15 4,0 24,-16 -5,-16 -1,0 -3,1 -4,1z"/>
   <polygon class="fil8" points="1214,1805 1214,1805 1214,1804 "/>
  </g>
  <g id="_2218800890928">
   <g>
    <polygon class="fil9" points="1202,2444 1201,2444 1202,2445 "/>
    <path class="fil9" d="M898 2421l1 -1c0,0 -1,1 -1,1z"/>
   </g>
   <g>
    <polygon class="fil10" points="1217,2443 1217,2442 1216,2443 "/>
    <polygon class="fil10" points="809,2445 809,2444 808,2445 "/>
    <path class="fil10" d="M1005 2431l0 0c0,0 0,0 0,0z"/>
    <path class="fil10" d="M1155 2460l0 -1c0,0 0,1 0,1z"/>
   </g>
   <g>
    <polygon class="fil11" points="760,2422 760,2423 761,2422 "/>
    <polygon class="fil11" points="844,2429 843,2429 844,2430 "/>
    <polygon class="fil11" points="886,2438 887,2438 886,2437 "/>
    <polygon class="fil11" points="1133,2435 1133,2436 1134,2435 "/>
    <path class="fil11" d="M1210 2436l0 -1c0,0 0,1 0,1z"/>
    <path class="fil11" d="M1133 2414l0 0c0,0 0,0 0,0z"/>
   </g>
   <g>
    <path class="fil12" d="M770 2411c2,6 12,19 16,22 6,-1 16,-17 16,-20 0,-5 -20,-3 -28,-3 -1,0 -3,0 -4,1z"/>
    <path class="fil12" d="M1091 2411c2,5 5,9 7,12 3,3 6,9 10,10 5,-3 15,-14 15,-22 -6,-2 -28,-2 -32,0z"/>
    <path class="fil12" d="M1070 2461c0,6 27,2 31,2 0,-4 -4,-9 -6,-12 -5,-7 -8,-8 -9,-11 -7,3 -16,16 -16,21z"/>
    <path class="fil12" d="M909 2462c7,4 24,2 32,1 0,-3 -2,-4 -3,-6 -4,-6 -7,-13 -13,-16 -5,1 -15,14 -16,21z"/>
    <path class="fil12" d="M931 2411c1,4 11,21 16,22 5,-3 15,-14 15,-22 -6,-3 -23,-1 -31,0z"/>
    <path class="fil12" d="M755 2464l25 -1c0,-5 -8,-15 -12,-19 -4,-5 -6,-4 -15,9 -4,4 -8,11 2,11z"/>
    <path class="fil12" d="M844 2429c5,1 1,3 8,3 1,-4 9,-11 10,-19 -8,-5 -19,-4 -28,-2 0,7 7,13 10,18z"/>
    <path class="fil12" d="M995 2411c0,6 9,20 16,21 3,-2 11,-13 11,-19 -6,-4 -11,-3 -20,-3 -3,0 -4,1 -7,1z"/>
    <path class="fil12" d="M689 2461c5,3 12,3 20,3 3,0 4,-1 7,-2 0,-8 -10,-18 -17,-21 -1,3 -8,10 -10,20z"/>
    <path class="fil12" d="M1156 2412c0,5 9,19 15,20 4,-2 12,-14 12,-19 -8,-5 -27,-4 -27,-1z"/>
    <path class="fil12" d="M1171 2461c7,2 19,5 27,0 -1,-5 -8,-16 -13,-19 -3,-1 -1,0 -4,-1 -2,5 -10,12 -10,20z"/>
    <path class="fil12" d="M1010 2461c7,2 20,5 27,0 0,-5 -10,-19 -17,-20 -1,3 -1,3 -3,5 -3,4 -7,10 -7,15z"/>
    <path class="fil12" d="M849 2461c8,5 19,3 28,1 0,-6 -10,-19 -16,-21 -3,3 -11,15 -12,20z"/>
   </g>
   <g>
    <path class="fil13" d="M1217 2443c-1,3 -1,3 -4,5l-20 -33c-1,-2 -1,-2 -4,-3 0,7 3,12 6,17 1,3 2,4 3,7 2,3 3,5 4,8l6 8c2,4 4,7 8,9 0,0 0,0 0,0l4 -4c7,-8 13,-19 18,-28 10,-17 6,-16 -15,-19 -5,-1 -21,-1 -25,1 0,3 0,1 2,3 3,2 21,4 26,5 3,1 6,1 2,8 -1,2 -2,3 -3,6 -2,3 -5,8 -8,10z"/>
    <path class="fil13" d="M1130 2447c0,8 13,8 19,6 0,-3 -2,-6 -3,-9 -1,-1 -4,-6 -5,-6 -4,0 -11,6 -11,9z"/>
    <path class="fil13" d="M969 2448c0,6 12,7 19,5 0,-4 -5,-15 -8,-15 -3,0 -11,5 -11,10z"/>
    <path class="fil13" d="M723 2421c0,5 5,14 9,15 4,0 23,-16 -5,-16 -1,0 -3,0 -4,1z"/>
    <path class="fil13" d="M1044 2421c0,5 7,15 8,15 5,0 24,-16 -4,-16 -1,0 -3,0 -4,1z"/>
   </g>
   <g>
    <path class="fil14" d="M886 2438l-8 -14c-2,-2 -2,-4 -4,-6 -2,-3 -2,-5 -6,-6 0,8 8,21 11,27 2,5 11,21 16,22 4,-2 13,-16 16,-21l9 -18c2,-4 4,-6 -1,-8 -7,-3 -36,-6 -42,-3 0,3 -1,1 2,3 4,2 28,4 30,7 1,2 -2,5 -3,7 -1,3 -2,5 -4,7 -1,2 -3,5 -4,7 -2,2 -3,4 -5,5 -3,-2 -5,-6 -7,-9z"/>
    <path class="fil14" d="M1133 2435c2,-4 4,-6 7,-9 3,3 15,24 20,32 2,3 1,3 5,3 0,-5 -3,-9 -5,-14l-7 -13c-3,-5 -10,-20 -16,-22 -5,4 -26,38 -27,46 10,6 23,6 35,6 5,0 9,1 11,-3 -7,-2 -7,-3 -16,-4 -6,-1 -12,-3 -17,-4 1,-5 7,-16 10,-18z"/>
    <path class="fil14" d="M760 2422c1,-3 2,-4 1,-7 -10,-3 -3,-2 -20,-5 -8,-1 -19,-1 -25,1 1,4 7,5 15,6 6,1 12,2 18,4 -1,6 -13,24 -17,26 -3,-2 -10,-14 -12,-18 -2,-4 -3,-6 -6,-9 -4,-6 -3,-7 -7,-8 0,7 20,47 27,49 5,-2 11,-13 14,-18l12 -21z"/>
    <path class="fil14" d="M949 2458c12,6 27,6 41,6 3,0 4,-1 5,-3l-16 -5c-6,-1 -11,-2 -17,-3 2,-7 12,-23 17,-27 3,3 5,5 7,9l14 23c1,2 1,3 4,3 0,-9 -21,-45 -27,-49 -6,4 -12,15 -15,21 -3,5 -12,19 -13,25z"/>
    <path class="fil14" d="M1037 2411l0 2c5,1 6,2 16,4 3,1 6,1 9,2 6,1 8,1 7,5 -1,2 -2,3 -2,4 -3,5 -11,18 -15,20 0,-3 -1,-2 -2,-5l-17 -28c-2,-2 -1,-2 -5,-3 0,9 20,45 27,49 3,-1 2,-1 5,-4l11 -16c3,-6 12,-19 12,-25 -10,-6 -39,-8 -46,-5z"/>
    <path class="fil14" d="M818 2464l16 -1 0 -2 -28 -7c-1,0 -4,0 -3,-3 0,-5 12,-23 16,-25 1,2 1,2 3,4 7,10 15,30 21,31 0,-9 -19,-44 -26,-49 -2,1 -3,2 -4,3l-8 12c-2,3 -3,5 -5,8l-10 18c-2,5 -1,6 4,7 5,2 16,4 24,4z"/>
    <path class="fil14" d="M892 2436c5,0 24,-16 -5,-16 -9,0 4,16 5,16z"/>
   </g>
   <path class="fil15" d="M1230 2461c0,6 27,2 32,2 -1,-4 -11,-20 -15,-22 -5,-2 -17,17 -17,20z"/>
   <path class="fil16" d="M809 2445c0,2 -1,2 -1,6 3,0 2,0 5,1 1,1 2,1 4,1 5,1 7,1 11,0 -1,-6 -5,-13 -9,-15 -3,-1 -8,5 -10,7z"/>
   <path class="fil17" d="M1205 2421c0,5 6,15 9,15 3,0 23,-16 -5,-16 -1,0 -3,0 -4,1z"/>
   <polygon class="fil18" points="761,2415 762,2415 761,2414 "/>
  </g>
  <path class="fil9" d="M1221 2421l0 -1c0,0 0,1 0,1z"/>
  <polygon class="fil10" points="1132,2445 1132,2444 1131,2445 "/>
  <path class="fil10" d="M1328 2431l0 0c0,0 -1,0 0,0z"/>
  <polygon class="fil11" points="1083,2422 1083,2423 1084,2422 "/>
  <polygon class="fil11" points="1167,2429 1166,2429 1167,2430 "/>
  <polygon class="fil11" points="1209,2438 1209,2438 1209,2437 "/>
  <polygon class="fil11" points="1456,2435 1456,2436 1457,2435 "/>
  <path class="fil11" d="M1456 2414l0 0c0,0 0,0 0,0z"/>
  <path class="fil12" d="M1093 2411c1,6 11,19 16,22 6,-1 15,-17 15,-20 0,-5 -19,-3 -27,-3 -1,0 -3,0 -4,1z"/>
  <path class="fil12" d="M1414 2411c1,5 4,9 7,12 2,3 5,9 10,10 5,-3 14,-14 15,-22 -6,-2 -29,-2 -32,0z"/>
  <path class="fil12" d="M1392 2461c0,6 28,2 32,2 0,-4 -5,-9 -7,-12 -4,-7 -7,-8 -8,-11 -7,3 -17,16 -17,21z"/>
  <path class="fil12" d="M1232 2462c7,4 23,2 31,1 0,-3 -1,-4 -2,-6 -4,-6 -8,-13 -13,-16 -5,1 -16,14 -16,21z"/>
  <path class="fil12" d="M1253 2411c1,4 11,21 17,22 5,-3 14,-14 15,-22 -6,-3 -24,-1 -32,0z"/>
  <path class="fil12" d="M1078 2464l25 -1c-1,-5 -9,-15 -12,-19 -5,-5 -7,-4 -16,9 -3,4 -8,11 3,11z"/>
  <path class="fil12" d="M1167 2429c5,1 1,3 7,3 2,-4 10,-11 10,-19 -8,-5 -19,-4 -27,-2 0,7 7,13 10,18z"/>
  <path class="fil12" d="M1318 2411c0,6 9,20 15,21 4,-2 12,-13 12,-19 -6,-4 -12,-3 -20,-3 -4,0 -4,1 -7,1z"/>
  <path class="fil12" d="M1011 2461c6,3 13,3 20,3 4,0 5,-1 8,-2 0,-8 -10,-18 -17,-21 -1,3 -9,10 -11,20z"/>
  <path class="fil12" d="M1478 2412c0,5 10,19 16,20 3,-2 11,-14 12,-19 -8,-5 -28,-4 -28,-1z"/>
  <path class="fil12" d="M1333 2461c7,2 20,5 27,0 0,-5 -10,-19 -17,-20 -1,3 -2,3 -3,5 -3,4 -7,10 -7,15z"/>
  <path class="fil12" d="M1172 2461c7,5 19,3 27,1 0,-6 -9,-19 -15,-21 -4,3 -12,15 -12,20z"/>
  <path class="fil13" d="M1452 2447c0,8 13,8 20,6 -1,-3 -2,-6 -4,-9 0,-1 -4,-6 -5,-6 -4,0 -11,6 -11,9z"/>
  <path class="fil13" d="M1292 2448c0,6 12,7 19,5 0,-4 -6,-15 -8,-15 -4,0 -11,5 -11,10z"/>
  <path class="fil13" d="M1045 2421c1,5 6,14 10,15 3,0 23,-16 -5,-16 -2,0 -4,0 -5,1z"/>
  <path class="fil13" d="M1367 2421c0,5 6,15 8,15 5,0 24,-16 -4,-16 -1,0 -3,0 -4,1z"/>
  <path class="fil14" d="M1209 2438l-9 -14c-1,-2 -2,-4 -4,-6 -2,-3 -2,-5 -6,-6 0,8 8,21 12,27 2,5 11,21 16,22 3,-2 12,-16 15,-21l10 -18c2,-4 4,-6 -2,-8 -6,-3 -35,-6 -42,-3 1,3 0,1 2,3 4,2 28,4 30,7 1,2 -1,5 -2,7 -2,3 -3,5 -4,7 -2,2 -3,5 -5,7 -1,2 -3,4 -5,5 -3,-2 -5,-6 -6,-9z"/>
  <path class="fil14" d="M1456 2435c2,-4 3,-6 6,-9 4,3 15,24 21,32 1,3 1,3 4,3 0,-5 -2,-9 -4,-14l-7 -13c-3,-5 -11,-20 -16,-22 -5,4 -27,38 -28,46 11,6 23,6 35,6 6,0 10,1 11,-3 -6,-2 -6,-3 -16,-4 -5,-1 -11,-3 -16,-4 0,-5 7,-16 10,-18z"/>
  <path class="fil14" d="M1083 2422c1,-3 2,-4 1,-7 -11,-3 -3,-2 -21,-5 -7,-1 -18,-1 -24,1 1,4 7,5 14,6 7,1 12,2 18,4 0,6 -12,24 -16,26 -3,-2 -11,-14 -12,-18 -2,-4 -4,-6 -6,-9 -4,-6 -3,-7 -7,-8 0,7 20,47 27,49 4,-2 10,-13 14,-18l12 -21z"/>
  <path class="fil14" d="M1272 2458c11,6 26,6 41,6 3,0 4,-1 5,-3l-16 -5c-6,-1 -11,-2 -17,-3 2,-7 12,-23 17,-27 3,3 4,5 6,9l14 23c2,2 2,3 5,3 0,-9 -21,-45 -27,-49 -6,4 -12,15 -16,21 -3,5 -12,19 -12,25z"/>
  <path class="fil14" d="M1360 2411l0 2c5,1 6,2 16,4 3,1 6,1 8,2 6,1 9,1 7,5 0,2 -1,3 -2,4 -2,5 -10,18 -14,20 -1,-3 -1,-2 -3,-5l-17 -28c-1,-2 -1,-2 -4,-3 0,9 20,45 26,49 4,-1 3,-1 5,-4l11 -16c3,-6 12,-19 13,-25 -11,-6 -39,-8 -46,-5z"/>
  <path class="fil14" d="M1140 2464l17 -1 0 -2 -29 -7c-1,0 -3,0 -3,-3 1,-5 13,-23 17,-25 1,2 1,2 3,4 6,10 14,30 21,31 0,-9 -20,-44 -27,-49 -1,1 -2,2 -3,3l-9 12c-2,3 -3,5 -5,8l-9 18c-3,5 -2,6 3,7 6,2 17,4 24,4z"/>
  <path class="fil14" d="M1214 2436c6,0 24,-16 -5,-16 -8,0 4,16 5,16z"/>
  <path class="fil16" d="M1132 2445c-1,2 -1,2 -1,6 3,0 1,0 4,1 2,1 3,1 5,1 5,1 6,1 10,0 0,-6 -5,-13 -8,-15 -3,-1 -8,5 -10,7z"/>
  <polygon class="fil18" points="1084,2415 1084,2415 1084,2414 "/>
 </g>
</svg>
